<mxfile host="app.diagrams.net" agent="Mozilla/5.0 (Windows NT 10.0; Win64; x64) AppleWebKit/537.36 (KHTML, like Gecko) Chrome/134.0.0.0 Safari/537.36" version="26.2.2">
  <diagram name="Página-1" id="p8A0jCwe3OhCuLWaPpF_">
    <mxGraphModel dx="2487" dy="601" grid="1" gridSize="10" guides="1" tooltips="1" connect="1" arrows="1" fold="1" page="1" pageScale="1" pageWidth="827" pageHeight="1169" math="0" shadow="1">
      <root>
        <mxCell id="0" />
        <mxCell id="1" parent="0" />
        <mxCell id="f7CumuYnIq6oZYcWAUSP-1" value="Horario" style="rounded=0;whiteSpace=wrap;html=1;" vertex="1" parent="1">
          <mxGeometry x="80" y="480" width="120" height="60" as="geometry" />
        </mxCell>
        <mxCell id="f7CumuYnIq6oZYcWAUSP-2" value="Alumno" style="rounded=0;whiteSpace=wrap;html=1;" vertex="1" parent="1">
          <mxGeometry x="590" y="120" width="120" height="60" as="geometry" />
        </mxCell>
        <mxCell id="f7CumuYnIq6oZYcWAUSP-3" value="Profesor" style="rounded=0;whiteSpace=wrap;html=1;" vertex="1" parent="1">
          <mxGeometry x="590" y="480" width="120" height="60" as="geometry" />
        </mxCell>
        <mxCell id="f7CumuYnIq6oZYcWAUSP-4" value="Materia" style="rounded=0;whiteSpace=wrap;html=1;" vertex="1" parent="1">
          <mxGeometry x="345" y="300" width="120" height="60" as="geometry" />
        </mxCell>
        <mxCell id="f7CumuYnIq6oZYcWAUSP-5" value="Curso" style="rounded=0;whiteSpace=wrap;html=1;" vertex="1" parent="1">
          <mxGeometry x="80" y="120" width="120" height="60" as="geometry" />
        </mxCell>
        <mxCell id="f7CumuYnIq6oZYcWAUSP-6" value="Fecha_Nacimiento" style="ellipse;whiteSpace=wrap;html=1;" vertex="1" parent="1">
          <mxGeometry x="390" y="30" width="110" height="50" as="geometry" />
        </mxCell>
        <mxCell id="f7CumuYnIq6oZYcWAUSP-7" value="ID_Alumno(PK)" style="ellipse;whiteSpace=wrap;html=1;" vertex="1" parent="1">
          <mxGeometry x="780" y="110" width="100" height="50" as="geometry" />
        </mxCell>
        <mxCell id="f7CumuYnIq6oZYcWAUSP-8" value="Dirección" style="ellipse;whiteSpace=wrap;html=1;" vertex="1" parent="1">
          <mxGeometry x="610" y="30" width="80" height="35" as="geometry" />
        </mxCell>
        <mxCell id="f7CumuYnIq6oZYcWAUSP-9" value="Teléfono" style="ellipse;whiteSpace=wrap;html=1;" vertex="1" parent="1">
          <mxGeometry x="800" y="45" width="60" height="35" as="geometry" />
        </mxCell>
        <mxCell id="f7CumuYnIq6oZYcWAUSP-10" value="Apellido" style="ellipse;whiteSpace=wrap;html=1;" vertex="1" parent="1">
          <mxGeometry x="520" y="30" width="60" height="40" as="geometry" />
        </mxCell>
        <mxCell id="f7CumuYnIq6oZYcWAUSP-11" value="Nombre" style="ellipse;whiteSpace=wrap;html=1;" vertex="1" parent="1">
          <mxGeometry x="710" y="40" width="60" height="35" as="geometry" />
        </mxCell>
        <mxCell id="f7CumuYnIq6oZYcWAUSP-19" value="" style="endArrow=none;html=1;rounded=0;entryX=0;entryY=0;entryDx=0;entryDy=0;exitX=0.638;exitY=1.015;exitDx=0;exitDy=0;exitPerimeter=0;" edge="1" parent="1" source="f7CumuYnIq6oZYcWAUSP-6" target="f7CumuYnIq6oZYcWAUSP-2">
          <mxGeometry width="50" height="50" relative="1" as="geometry">
            <mxPoint x="520" y="190" as="sourcePoint" />
            <mxPoint x="570" y="140" as="targetPoint" />
          </mxGeometry>
        </mxCell>
        <mxCell id="f7CumuYnIq6oZYcWAUSP-20" value="" style="endArrow=none;html=1;rounded=0;entryX=0.5;entryY=1;entryDx=0;entryDy=0;" edge="1" parent="1" source="f7CumuYnIq6oZYcWAUSP-2" target="f7CumuYnIq6oZYcWAUSP-8">
          <mxGeometry width="50" height="50" relative="1" as="geometry">
            <mxPoint x="414" y="250" as="sourcePoint" />
            <mxPoint x="464" y="200" as="targetPoint" />
          </mxGeometry>
        </mxCell>
        <mxCell id="f7CumuYnIq6oZYcWAUSP-21" value="" style="endArrow=none;html=1;rounded=0;entryX=0.5;entryY=1;entryDx=0;entryDy=0;exitX=0.25;exitY=0;exitDx=0;exitDy=0;" edge="1" parent="1" source="f7CumuYnIq6oZYcWAUSP-2" target="f7CumuYnIq6oZYcWAUSP-10">
          <mxGeometry width="50" height="50" relative="1" as="geometry">
            <mxPoint x="380" y="200" as="sourcePoint" />
            <mxPoint x="430" y="150" as="targetPoint" />
          </mxGeometry>
        </mxCell>
        <mxCell id="f7CumuYnIq6oZYcWAUSP-22" value="" style="endArrow=none;html=1;rounded=0;entryX=0;entryY=1;entryDx=0;entryDy=0;" edge="1" parent="1" source="f7CumuYnIq6oZYcWAUSP-2" target="f7CumuYnIq6oZYcWAUSP-11">
          <mxGeometry width="50" height="50" relative="1" as="geometry">
            <mxPoint x="440" y="270" as="sourcePoint" />
            <mxPoint x="490" y="220" as="targetPoint" />
          </mxGeometry>
        </mxCell>
        <mxCell id="f7CumuYnIq6oZYcWAUSP-23" value="" style="endArrow=none;html=1;rounded=0;entryX=0;entryY=0.5;entryDx=0;entryDy=0;exitX=1;exitY=0.5;exitDx=0;exitDy=0;" edge="1" parent="1" source="f7CumuYnIq6oZYcWAUSP-2" target="f7CumuYnIq6oZYcWAUSP-7">
          <mxGeometry width="50" height="50" relative="1" as="geometry">
            <mxPoint x="500" y="280" as="sourcePoint" />
            <mxPoint x="550" y="230" as="targetPoint" />
          </mxGeometry>
        </mxCell>
        <mxCell id="f7CumuYnIq6oZYcWAUSP-24" value="" style="endArrow=none;html=1;rounded=0;entryX=0;entryY=1;entryDx=0;entryDy=0;" edge="1" parent="1" source="f7CumuYnIq6oZYcWAUSP-2" target="f7CumuYnIq6oZYcWAUSP-9">
          <mxGeometry width="50" height="50" relative="1" as="geometry">
            <mxPoint x="560" y="250" as="sourcePoint" />
            <mxPoint x="610" y="200" as="targetPoint" />
          </mxGeometry>
        </mxCell>
        <mxCell id="f7CumuYnIq6oZYcWAUSP-27" value="Nombre" style="ellipse;whiteSpace=wrap;html=1;" vertex="1" parent="1">
          <mxGeometry x="790" y="450" width="80" height="40" as="geometry" />
        </mxCell>
        <mxCell id="f7CumuYnIq6oZYcWAUSP-28" value="Teléfono" style="ellipse;whiteSpace=wrap;html=1;" vertex="1" parent="1">
          <mxGeometry x="610" y="610" width="70" height="40" as="geometry" />
        </mxCell>
        <mxCell id="f7CumuYnIq6oZYcWAUSP-29" value="ID_Profesor(PK)" style="ellipse;whiteSpace=wrap;html=1;" vertex="1" parent="1">
          <mxGeometry x="780" y="360" width="100" height="60" as="geometry" />
        </mxCell>
        <mxCell id="f7CumuYnIq6oZYcWAUSP-30" value="Especialidad" style="ellipse;whiteSpace=wrap;html=1;" vertex="1" parent="1">
          <mxGeometry x="720" y="600" width="90" height="50" as="geometry" />
        </mxCell>
        <mxCell id="f7CumuYnIq6oZYcWAUSP-31" value="Correo_Electrónico" style="ellipse;whiteSpace=wrap;html=1;" vertex="1" parent="1">
          <mxGeometry x="465" y="590" width="115" height="60" as="geometry" />
        </mxCell>
        <mxCell id="f7CumuYnIq6oZYcWAUSP-32" value="Apellido" style="ellipse;whiteSpace=wrap;html=1;" vertex="1" parent="1">
          <mxGeometry x="785" y="530" width="90" height="40" as="geometry" />
        </mxCell>
        <mxCell id="f7CumuYnIq6oZYcWAUSP-33" value="" style="endArrow=none;html=1;rounded=0;entryX=1;entryY=1;entryDx=0;entryDy=0;exitX=0.5;exitY=0;exitDx=0;exitDy=0;" edge="1" parent="1" source="f7CumuYnIq6oZYcWAUSP-30" target="f7CumuYnIq6oZYcWAUSP-3">
          <mxGeometry width="50" height="50" relative="1" as="geometry">
            <mxPoint x="390" y="510" as="sourcePoint" />
            <mxPoint x="440" y="460" as="targetPoint" />
          </mxGeometry>
        </mxCell>
        <mxCell id="f7CumuYnIq6oZYcWAUSP-34" value="" style="endArrow=none;html=1;rounded=0;entryX=0.5;entryY=1;entryDx=0;entryDy=0;exitX=0.5;exitY=0;exitDx=0;exitDy=0;" edge="1" parent="1" source="f7CumuYnIq6oZYcWAUSP-28" target="f7CumuYnIq6oZYcWAUSP-3">
          <mxGeometry width="50" height="50" relative="1" as="geometry">
            <mxPoint x="390" y="510" as="sourcePoint" />
            <mxPoint x="440" y="460" as="targetPoint" />
          </mxGeometry>
        </mxCell>
        <mxCell id="f7CumuYnIq6oZYcWAUSP-35" value="" style="endArrow=none;html=1;rounded=0;entryX=0.25;entryY=1;entryDx=0;entryDy=0;exitX=0.5;exitY=0;exitDx=0;exitDy=0;" edge="1" parent="1" source="f7CumuYnIq6oZYcWAUSP-31" target="f7CumuYnIq6oZYcWAUSP-3">
          <mxGeometry width="50" height="50" relative="1" as="geometry">
            <mxPoint x="390" y="510" as="sourcePoint" />
            <mxPoint x="440" y="460" as="targetPoint" />
          </mxGeometry>
        </mxCell>
        <mxCell id="f7CumuYnIq6oZYcWAUSP-36" value="" style="endArrow=none;html=1;rounded=0;entryX=1;entryY=0.25;entryDx=0;entryDy=0;exitX=0;exitY=0.5;exitDx=0;exitDy=0;" edge="1" parent="1" source="f7CumuYnIq6oZYcWAUSP-27" target="f7CumuYnIq6oZYcWAUSP-3">
          <mxGeometry width="50" height="50" relative="1" as="geometry">
            <mxPoint x="390" y="510" as="sourcePoint" />
            <mxPoint x="440" y="460" as="targetPoint" />
          </mxGeometry>
        </mxCell>
        <mxCell id="f7CumuYnIq6oZYcWAUSP-37" value="" style="endArrow=none;html=1;rounded=0;entryX=1;entryY=0;entryDx=0;entryDy=0;" edge="1" parent="1" source="f7CumuYnIq6oZYcWAUSP-29" target="f7CumuYnIq6oZYcWAUSP-3">
          <mxGeometry width="50" height="50" relative="1" as="geometry">
            <mxPoint x="390" y="510" as="sourcePoint" />
            <mxPoint x="440" y="460" as="targetPoint" />
          </mxGeometry>
        </mxCell>
        <mxCell id="f7CumuYnIq6oZYcWAUSP-38" value="" style="endArrow=none;html=1;rounded=0;entryX=1;entryY=0.5;entryDx=0;entryDy=0;exitX=0;exitY=0.5;exitDx=0;exitDy=0;" edge="1" parent="1" source="f7CumuYnIq6oZYcWAUSP-32" target="f7CumuYnIq6oZYcWAUSP-3">
          <mxGeometry width="50" height="50" relative="1" as="geometry">
            <mxPoint x="390" y="510" as="sourcePoint" />
            <mxPoint x="440" y="460" as="targetPoint" />
          </mxGeometry>
        </mxCell>
        <mxCell id="f7CumuYnIq6oZYcWAUSP-39" value="ID_Materia(PK)" style="ellipse;whiteSpace=wrap;html=1;" vertex="1" parent="1">
          <mxGeometry x="480" y="300" width="100" height="60" as="geometry" />
        </mxCell>
        <mxCell id="f7CumuYnIq6oZYcWAUSP-40" value="Nombre" style="ellipse;whiteSpace=wrap;html=1;" vertex="1" parent="1">
          <mxGeometry x="367.5" y="375" width="75" height="50" as="geometry" />
        </mxCell>
        <mxCell id="f7CumuYnIq6oZYcWAUSP-41" value="Descripción" style="ellipse;whiteSpace=wrap;html=1;" vertex="1" parent="1">
          <mxGeometry x="240" y="305" width="90" height="50" as="geometry" />
        </mxCell>
        <mxCell id="f7CumuYnIq6oZYcWAUSP-42" value="" style="endArrow=none;html=1;rounded=0;exitX=1;exitY=0.5;exitDx=0;exitDy=0;entryX=0;entryY=0.5;entryDx=0;entryDy=0;" edge="1" parent="1" source="f7CumuYnIq6oZYcWAUSP-41" target="f7CumuYnIq6oZYcWAUSP-4">
          <mxGeometry width="50" height="50" relative="1" as="geometry">
            <mxPoint x="390" y="390" as="sourcePoint" />
            <mxPoint x="350" y="330" as="targetPoint" />
          </mxGeometry>
        </mxCell>
        <mxCell id="f7CumuYnIq6oZYcWAUSP-43" value="" style="endArrow=none;html=1;rounded=0;exitX=0.5;exitY=0;exitDx=0;exitDy=0;entryX=0.5;entryY=1;entryDx=0;entryDy=0;" edge="1" parent="1" source="f7CumuYnIq6oZYcWAUSP-40" target="f7CumuYnIq6oZYcWAUSP-4">
          <mxGeometry width="50" height="50" relative="1" as="geometry">
            <mxPoint x="390" y="390" as="sourcePoint" />
            <mxPoint x="440" y="340" as="targetPoint" />
          </mxGeometry>
        </mxCell>
        <mxCell id="f7CumuYnIq6oZYcWAUSP-44" value="" style="endArrow=none;html=1;rounded=0;entryX=0;entryY=0.5;entryDx=0;entryDy=0;exitX=1;exitY=0.5;exitDx=0;exitDy=0;" edge="1" parent="1" source="f7CumuYnIq6oZYcWAUSP-4" target="f7CumuYnIq6oZYcWAUSP-39">
          <mxGeometry width="50" height="50" relative="1" as="geometry">
            <mxPoint x="390" y="390" as="sourcePoint" />
            <mxPoint x="440" y="340" as="targetPoint" />
          </mxGeometry>
        </mxCell>
        <mxCell id="f7CumuYnIq6oZYcWAUSP-45" value="ID_Curso(PK)" style="ellipse;whiteSpace=wrap;html=1;" vertex="1" parent="1">
          <mxGeometry x="-10" y="22.5" width="90" height="50" as="geometry" />
        </mxCell>
        <mxCell id="f7CumuYnIq6oZYcWAUSP-46" value="División" style="ellipse;whiteSpace=wrap;html=1;" vertex="1" parent="1">
          <mxGeometry x="-50" y="110" width="70" height="40" as="geometry" />
        </mxCell>
        <mxCell id="f7CumuYnIq6oZYcWAUSP-47" value="Año" style="ellipse;whiteSpace=wrap;html=1;" vertex="1" parent="1">
          <mxGeometry x="222.5" y="32.5" width="65" height="30" as="geometry" />
        </mxCell>
        <mxCell id="f7CumuYnIq6oZYcWAUSP-48" value="Nombre" style="ellipse;whiteSpace=wrap;html=1;" vertex="1" parent="1">
          <mxGeometry x="120" y="27.5" width="70" height="40" as="geometry" />
        </mxCell>
        <mxCell id="f7CumuYnIq6oZYcWAUSP-52" value="" style="endArrow=none;html=1;rounded=0;exitX=1;exitY=0.5;exitDx=0;exitDy=0;entryX=0;entryY=0.5;entryDx=0;entryDy=0;" edge="1" parent="1" source="f7CumuYnIq6oZYcWAUSP-46" target="f7CumuYnIq6oZYcWAUSP-5">
          <mxGeometry width="50" height="50" relative="1" as="geometry">
            <mxPoint x="390" y="260" as="sourcePoint" />
            <mxPoint x="440" y="210" as="targetPoint" />
          </mxGeometry>
        </mxCell>
        <mxCell id="f7CumuYnIq6oZYcWAUSP-53" value="" style="endArrow=none;html=1;rounded=0;entryX=0.5;entryY=1;entryDx=0;entryDy=0;exitX=0;exitY=0;exitDx=0;exitDy=0;" edge="1" parent="1" source="f7CumuYnIq6oZYcWAUSP-5" target="f7CumuYnIq6oZYcWAUSP-45">
          <mxGeometry width="50" height="50" relative="1" as="geometry">
            <mxPoint x="390" y="260" as="sourcePoint" />
            <mxPoint x="440" y="210" as="targetPoint" />
          </mxGeometry>
        </mxCell>
        <mxCell id="f7CumuYnIq6oZYcWAUSP-54" value="" style="endArrow=none;html=1;rounded=0;entryX=0.5;entryY=1;entryDx=0;entryDy=0;exitX=0.5;exitY=0;exitDx=0;exitDy=0;" edge="1" parent="1" source="f7CumuYnIq6oZYcWAUSP-5" target="f7CumuYnIq6oZYcWAUSP-48">
          <mxGeometry width="50" height="50" relative="1" as="geometry">
            <mxPoint x="390" y="260" as="sourcePoint" />
            <mxPoint x="440" y="210" as="targetPoint" />
          </mxGeometry>
        </mxCell>
        <mxCell id="f7CumuYnIq6oZYcWAUSP-55" value="" style="endArrow=none;html=1;rounded=0;entryX=0.5;entryY=1;entryDx=0;entryDy=0;exitX=1;exitY=0;exitDx=0;exitDy=0;" edge="1" parent="1" source="f7CumuYnIq6oZYcWAUSP-5" target="f7CumuYnIq6oZYcWAUSP-47">
          <mxGeometry width="50" height="50" relative="1" as="geometry">
            <mxPoint x="390" y="260" as="sourcePoint" />
            <mxPoint x="440" y="210" as="targetPoint" />
          </mxGeometry>
        </mxCell>
        <mxCell id="f7CumuYnIq6oZYcWAUSP-56" value="Hora_Inicio" style="ellipse;whiteSpace=wrap;html=1;" vertex="1" parent="1">
          <mxGeometry x="190" y="600" width="90" height="50" as="geometry" />
        </mxCell>
        <mxCell id="f7CumuYnIq6oZYcWAUSP-57" value="ID_Horario(PK)" style="ellipse;whiteSpace=wrap;html=1;" vertex="1" parent="1">
          <mxGeometry x="-100" y="290" width="110" height="50" as="geometry" />
        </mxCell>
        <mxCell id="f7CumuYnIq6oZYcWAUSP-58" value="Día" style="ellipse;whiteSpace=wrap;html=1;" vertex="1" parent="1">
          <mxGeometry x="-10" y="610" width="70" height="30" as="geometry" />
        </mxCell>
        <mxCell id="f7CumuYnIq6oZYcWAUSP-59" value="ID_Curso(FK)" style="ellipse;whiteSpace=wrap;html=1;" vertex="1" parent="1">
          <mxGeometry x="-90" y="470" width="100" height="50" as="geometry" />
        </mxCell>
        <mxCell id="f7CumuYnIq6oZYcWAUSP-60" value="Hora_Fin" style="ellipse;whiteSpace=wrap;html=1;" vertex="1" parent="1">
          <mxGeometry x="90" y="600" width="80" height="45" as="geometry" />
        </mxCell>
        <mxCell id="f7CumuYnIq6oZYcWAUSP-61" value="ID_Profesor(FK)" style="ellipse;whiteSpace=wrap;html=1;" vertex="1" parent="1">
          <mxGeometry x="-80" y="550" width="110" height="50" as="geometry" />
        </mxCell>
        <mxCell id="f7CumuYnIq6oZYcWAUSP-62" value="ID_Materia(Fk)" style="ellipse;whiteSpace=wrap;html=1;" vertex="1" parent="1">
          <mxGeometry x="-90" y="390" width="100" height="50" as="geometry" />
        </mxCell>
        <mxCell id="f7CumuYnIq6oZYcWAUSP-63" value="" style="endArrow=none;html=1;rounded=0;exitX=1;exitY=1;exitDx=0;exitDy=0;entryX=0;entryY=0;entryDx=0;entryDy=0;" edge="1" parent="1" source="f7CumuYnIq6oZYcWAUSP-57" target="f7CumuYnIq6oZYcWAUSP-1">
          <mxGeometry width="50" height="50" relative="1" as="geometry">
            <mxPoint x="390" y="510" as="sourcePoint" />
            <mxPoint x="440" y="460" as="targetPoint" />
          </mxGeometry>
        </mxCell>
        <mxCell id="f7CumuYnIq6oZYcWAUSP-64" value="" style="endArrow=none;html=1;rounded=0;exitX=1;exitY=1;exitDx=0;exitDy=0;entryX=0;entryY=0.25;entryDx=0;entryDy=0;" edge="1" parent="1" source="f7CumuYnIq6oZYcWAUSP-62" target="f7CumuYnIq6oZYcWAUSP-1">
          <mxGeometry width="50" height="50" relative="1" as="geometry">
            <mxPoint x="390" y="510" as="sourcePoint" />
            <mxPoint x="440" y="460" as="targetPoint" />
          </mxGeometry>
        </mxCell>
        <mxCell id="f7CumuYnIq6oZYcWAUSP-65" value="" style="endArrow=none;html=1;rounded=0;exitX=1;exitY=0.5;exitDx=0;exitDy=0;entryX=0;entryY=0.75;entryDx=0;entryDy=0;" edge="1" parent="1" source="f7CumuYnIq6oZYcWAUSP-59" target="f7CumuYnIq6oZYcWAUSP-1">
          <mxGeometry width="50" height="50" relative="1" as="geometry">
            <mxPoint x="390" y="510" as="sourcePoint" />
            <mxPoint x="440" y="460" as="targetPoint" />
          </mxGeometry>
        </mxCell>
        <mxCell id="f7CumuYnIq6oZYcWAUSP-66" value="" style="endArrow=none;html=1;rounded=0;exitX=1;exitY=0;exitDx=0;exitDy=0;" edge="1" parent="1" source="f7CumuYnIq6oZYcWAUSP-61">
          <mxGeometry width="50" height="50" relative="1" as="geometry">
            <mxPoint x="390" y="510" as="sourcePoint" />
            <mxPoint x="80" y="540" as="targetPoint" />
          </mxGeometry>
        </mxCell>
        <mxCell id="f7CumuYnIq6oZYcWAUSP-67" value="" style="endArrow=none;html=1;rounded=0;exitX=0.5;exitY=0;exitDx=0;exitDy=0;entryX=0.25;entryY=1;entryDx=0;entryDy=0;" edge="1" parent="1" source="f7CumuYnIq6oZYcWAUSP-58" target="f7CumuYnIq6oZYcWAUSP-1">
          <mxGeometry width="50" height="50" relative="1" as="geometry">
            <mxPoint x="390" y="510" as="sourcePoint" />
            <mxPoint x="440" y="460" as="targetPoint" />
          </mxGeometry>
        </mxCell>
        <mxCell id="f7CumuYnIq6oZYcWAUSP-68" value="" style="endArrow=none;html=1;rounded=0;exitX=0.5;exitY=0;exitDx=0;exitDy=0;entryX=0.5;entryY=1;entryDx=0;entryDy=0;" edge="1" parent="1" source="f7CumuYnIq6oZYcWAUSP-60" target="f7CumuYnIq6oZYcWAUSP-1">
          <mxGeometry width="50" height="50" relative="1" as="geometry">
            <mxPoint x="390" y="510" as="sourcePoint" />
            <mxPoint x="440" y="460" as="targetPoint" />
          </mxGeometry>
        </mxCell>
        <mxCell id="f7CumuYnIq6oZYcWAUSP-69" value="" style="endArrow=none;html=1;rounded=0;exitX=0.5;exitY=0;exitDx=0;exitDy=0;entryX=1;entryY=1;entryDx=0;entryDy=0;" edge="1" parent="1" source="f7CumuYnIq6oZYcWAUSP-56" target="f7CumuYnIq6oZYcWAUSP-1">
          <mxGeometry width="50" height="50" relative="1" as="geometry">
            <mxPoint x="390" y="510" as="sourcePoint" />
            <mxPoint x="440" y="460" as="targetPoint" />
          </mxGeometry>
        </mxCell>
        <mxCell id="f7CumuYnIq6oZYcWAUSP-70" value="Tiene" style="rhombus;whiteSpace=wrap;html=1;" vertex="1" parent="1">
          <mxGeometry x="330" y="110" width="80" height="80" as="geometry" />
        </mxCell>
        <mxCell id="f7CumuYnIq6oZYcWAUSP-71" value="" style="endArrow=none;html=1;rounded=0;entryX=1;entryY=0.5;entryDx=0;entryDy=0;exitX=0;exitY=0.5;exitDx=0;exitDy=0;" edge="1" parent="1" source="f7CumuYnIq6oZYcWAUSP-70" target="f7CumuYnIq6oZYcWAUSP-5">
          <mxGeometry width="50" height="50" relative="1" as="geometry">
            <mxPoint x="390" y="260" as="sourcePoint" />
            <mxPoint x="440" y="210" as="targetPoint" />
          </mxGeometry>
        </mxCell>
        <mxCell id="f7CumuYnIq6oZYcWAUSP-72" value="" style="endArrow=none;html=1;rounded=0;exitX=1;exitY=0.5;exitDx=0;exitDy=0;" edge="1" parent="1" source="f7CumuYnIq6oZYcWAUSP-70">
          <mxGeometry width="50" height="50" relative="1" as="geometry">
            <mxPoint x="390" y="260" as="sourcePoint" />
            <mxPoint x="590" y="150" as="targetPoint" />
          </mxGeometry>
        </mxCell>
        <mxCell id="f7CumuYnIq6oZYcWAUSP-73" value="1" style="text;html=1;align=center;verticalAlign=middle;whiteSpace=wrap;rounded=0;" vertex="1" parent="1">
          <mxGeometry x="210" y="130" width="40" height="20" as="geometry" />
        </mxCell>
        <mxCell id="f7CumuYnIq6oZYcWAUSP-74" value="N" style="text;html=1;align=center;verticalAlign=middle;whiteSpace=wrap;rounded=0;" vertex="1" parent="1">
          <mxGeometry x="520" y="130" width="40" height="20" as="geometry" />
        </mxCell>
        <mxCell id="f7CumuYnIq6oZYcWAUSP-75" value="Tiene" style="rhombus;whiteSpace=wrap;html=1;" vertex="1" parent="1">
          <mxGeometry x="220" y="200" width="80" height="80" as="geometry" />
        </mxCell>
        <mxCell id="f7CumuYnIq6oZYcWAUSP-76" value="" style="endArrow=none;html=1;rounded=0;exitX=0;exitY=0;exitDx=0;exitDy=0;" edge="1" parent="1" source="f7CumuYnIq6oZYcWAUSP-4" target="f7CumuYnIq6oZYcWAUSP-75">
          <mxGeometry width="50" height="50" relative="1" as="geometry">
            <mxPoint x="390" y="260" as="sourcePoint" />
            <mxPoint x="440" y="210" as="targetPoint" />
          </mxGeometry>
        </mxCell>
        <mxCell id="f7CumuYnIq6oZYcWAUSP-77" value="" style="endArrow=none;html=1;rounded=0;entryX=0;entryY=0;entryDx=0;entryDy=0;exitX=1;exitY=1;exitDx=0;exitDy=0;" edge="1" parent="1" source="f7CumuYnIq6oZYcWAUSP-5" target="f7CumuYnIq6oZYcWAUSP-75">
          <mxGeometry width="50" height="50" relative="1" as="geometry">
            <mxPoint x="390" y="260" as="sourcePoint" />
            <mxPoint x="440" y="210" as="targetPoint" />
          </mxGeometry>
        </mxCell>
        <mxCell id="f7CumuYnIq6oZYcWAUSP-79" value="N" style="text;html=1;align=center;verticalAlign=middle;whiteSpace=wrap;rounded=0;" vertex="1" parent="1">
          <mxGeometry x="210" y="180" width="40" height="20" as="geometry" />
        </mxCell>
        <mxCell id="f7CumuYnIq6oZYcWAUSP-80" value="N" style="text;html=1;align=center;verticalAlign=middle;whiteSpace=wrap;rounded=0;" vertex="1" parent="1">
          <mxGeometry x="310" y="260" width="40" height="20" as="geometry" />
        </mxCell>
        <mxCell id="f7CumuYnIq6oZYcWAUSP-81" value="Tiene" style="rhombus;whiteSpace=wrap;html=1;" vertex="1" parent="1">
          <mxGeometry x="490" y="375" width="80" height="80" as="geometry" />
        </mxCell>
        <mxCell id="f7CumuYnIq6oZYcWAUSP-82" value="N" style="text;html=1;align=center;verticalAlign=middle;whiteSpace=wrap;rounded=0;" vertex="1" parent="1">
          <mxGeometry x="560" y="435" width="40" height="20" as="geometry" />
        </mxCell>
        <mxCell id="f7CumuYnIq6oZYcWAUSP-83" value="N" style="text;html=1;align=center;verticalAlign=middle;whiteSpace=wrap;rounded=0;" vertex="1" parent="1">
          <mxGeometry x="470" y="355" width="40" height="20" as="geometry" />
        </mxCell>
        <mxCell id="f7CumuYnIq6oZYcWAUSP-84" value="" style="endArrow=none;html=1;rounded=0;entryX=1;entryY=1;entryDx=0;entryDy=0;exitX=0;exitY=0;exitDx=0;exitDy=0;" edge="1" parent="1" source="f7CumuYnIq6oZYcWAUSP-81" target="f7CumuYnIq6oZYcWAUSP-4">
          <mxGeometry width="50" height="50" relative="1" as="geometry">
            <mxPoint x="390" y="490" as="sourcePoint" />
            <mxPoint x="440" y="440" as="targetPoint" />
          </mxGeometry>
        </mxCell>
        <mxCell id="f7CumuYnIq6oZYcWAUSP-85" value="" style="endArrow=none;html=1;rounded=0;entryX=0;entryY=0;entryDx=0;entryDy=0;exitX=1;exitY=1;exitDx=0;exitDy=0;" edge="1" parent="1" source="f7CumuYnIq6oZYcWAUSP-81" target="f7CumuYnIq6oZYcWAUSP-3">
          <mxGeometry width="50" height="50" relative="1" as="geometry">
            <mxPoint x="390" y="490" as="sourcePoint" />
            <mxPoint x="440" y="440" as="targetPoint" />
          </mxGeometry>
        </mxCell>
        <mxCell id="f7CumuYnIq6oZYcWAUSP-88" value="Tiene" style="rhombus;whiteSpace=wrap;html=1;" vertex="1" parent="1">
          <mxGeometry x="340" y="470" width="80" height="80" as="geometry" />
        </mxCell>
        <mxCell id="f7CumuYnIq6oZYcWAUSP-89" value="" style="endArrow=none;html=1;rounded=0;exitX=1;exitY=0.5;exitDx=0;exitDy=0;entryX=0;entryY=0.5;entryDx=0;entryDy=0;" edge="1" parent="1" source="f7CumuYnIq6oZYcWAUSP-1" target="f7CumuYnIq6oZYcWAUSP-88">
          <mxGeometry width="50" height="50" relative="1" as="geometry">
            <mxPoint x="390" y="490" as="sourcePoint" />
            <mxPoint x="440" y="440" as="targetPoint" />
          </mxGeometry>
        </mxCell>
        <mxCell id="f7CumuYnIq6oZYcWAUSP-90" value="" style="endArrow=none;html=1;rounded=0;entryX=0;entryY=0.5;entryDx=0;entryDy=0;exitX=1;exitY=0.5;exitDx=0;exitDy=0;" edge="1" parent="1" source="f7CumuYnIq6oZYcWAUSP-88" target="f7CumuYnIq6oZYcWAUSP-3">
          <mxGeometry width="50" height="50" relative="1" as="geometry">
            <mxPoint x="390" y="490" as="sourcePoint" />
            <mxPoint x="440" y="440" as="targetPoint" />
          </mxGeometry>
        </mxCell>
        <mxCell id="f7CumuYnIq6oZYcWAUSP-91" value="N" style="text;html=1;align=center;verticalAlign=middle;whiteSpace=wrap;rounded=0;" vertex="1" parent="1">
          <mxGeometry x="220" y="490" width="40" height="20" as="geometry" />
        </mxCell>
        <mxCell id="f7CumuYnIq6oZYcWAUSP-92" value="1" style="text;html=1;align=center;verticalAlign=middle;whiteSpace=wrap;rounded=0;" vertex="1" parent="1">
          <mxGeometry x="520" y="490" width="40" height="20" as="geometry" />
        </mxCell>
        <mxCell id="f7CumuYnIq6oZYcWAUSP-93" value="Tiene" style="rhombus;whiteSpace=wrap;html=1;" vertex="1" parent="1">
          <mxGeometry x="230" y="375" width="80" height="80" as="geometry" />
        </mxCell>
        <mxCell id="f7CumuYnIq6oZYcWAUSP-94" value="" style="endArrow=none;html=1;rounded=0;entryX=1;entryY=0;entryDx=0;entryDy=0;exitX=0;exitY=1;exitDx=0;exitDy=0;" edge="1" parent="1" source="f7CumuYnIq6oZYcWAUSP-93" target="f7CumuYnIq6oZYcWAUSP-1">
          <mxGeometry width="50" height="50" relative="1" as="geometry">
            <mxPoint x="390" y="370" as="sourcePoint" />
            <mxPoint x="440" y="320" as="targetPoint" />
          </mxGeometry>
        </mxCell>
        <mxCell id="f7CumuYnIq6oZYcWAUSP-95" value="" style="endArrow=none;html=1;rounded=0;entryX=0;entryY=1;entryDx=0;entryDy=0;exitX=1;exitY=0;exitDx=0;exitDy=0;" edge="1" parent="1" source="f7CumuYnIq6oZYcWAUSP-93" target="f7CumuYnIq6oZYcWAUSP-4">
          <mxGeometry width="50" height="50" relative="1" as="geometry">
            <mxPoint x="390" y="370" as="sourcePoint" />
            <mxPoint x="440" y="320" as="targetPoint" />
          </mxGeometry>
        </mxCell>
        <mxCell id="f7CumuYnIq6oZYcWAUSP-96" value="N" style="text;html=1;align=center;verticalAlign=middle;whiteSpace=wrap;rounded=0;" vertex="1" parent="1">
          <mxGeometry x="180" y="450" width="40" height="20" as="geometry" />
        </mxCell>
        <mxCell id="f7CumuYnIq6oZYcWAUSP-97" value="1" style="text;html=1;align=center;verticalAlign=middle;whiteSpace=wrap;rounded=0;" vertex="1" parent="1">
          <mxGeometry x="300" y="355" width="40" height="20" as="geometry" />
        </mxCell>
        <mxCell id="f7CumuYnIq6oZYcWAUSP-98" value="Tiene" style="rhombus;whiteSpace=wrap;html=1;" vertex="1" parent="1">
          <mxGeometry x="100" y="280" width="80" height="80" as="geometry" />
        </mxCell>
        <mxCell id="f7CumuYnIq6oZYcWAUSP-99" value="" style="endArrow=none;html=1;rounded=0;entryX=0.5;entryY=0;entryDx=0;entryDy=0;exitX=0.5;exitY=1;exitDx=0;exitDy=0;" edge="1" parent="1" source="f7CumuYnIq6oZYcWAUSP-98" target="f7CumuYnIq6oZYcWAUSP-1">
          <mxGeometry width="50" height="50" relative="1" as="geometry">
            <mxPoint x="390" y="370" as="sourcePoint" />
            <mxPoint x="440" y="320" as="targetPoint" />
          </mxGeometry>
        </mxCell>
        <mxCell id="f7CumuYnIq6oZYcWAUSP-100" value="" style="endArrow=none;html=1;rounded=0;entryX=0.5;entryY=1;entryDx=0;entryDy=0;" edge="1" parent="1" source="f7CumuYnIq6oZYcWAUSP-98" target="f7CumuYnIq6oZYcWAUSP-5">
          <mxGeometry width="50" height="50" relative="1" as="geometry">
            <mxPoint x="390" y="370" as="sourcePoint" />
            <mxPoint x="440" y="320" as="targetPoint" />
          </mxGeometry>
        </mxCell>
        <mxCell id="f7CumuYnIq6oZYcWAUSP-101" value="N" style="text;html=1;align=center;verticalAlign=middle;whiteSpace=wrap;rounded=0;" vertex="1" parent="1">
          <mxGeometry x="110" y="450" width="40" height="20" as="geometry" />
        </mxCell>
        <mxCell id="f7CumuYnIq6oZYcWAUSP-102" value="1" style="text;html=1;align=center;verticalAlign=middle;whiteSpace=wrap;rounded=0;" vertex="1" parent="1">
          <mxGeometry x="110" y="190" width="40" height="20" as="geometry" />
        </mxCell>
        <mxCell id="f7CumuYnIq6oZYcWAUSP-104" value="Tiene" style="rhombus;whiteSpace=wrap;html=1;" vertex="1" parent="1">
          <mxGeometry x="610" y="280" width="80" height="80" as="geometry" />
        </mxCell>
        <mxCell id="f7CumuYnIq6oZYcWAUSP-105" value="" style="endArrow=none;html=1;rounded=0;entryX=0.5;entryY=1;entryDx=0;entryDy=0;exitX=0.5;exitY=0;exitDx=0;exitDy=0;" edge="1" parent="1" source="f7CumuYnIq6oZYcWAUSP-104" target="f7CumuYnIq6oZYcWAUSP-2">
          <mxGeometry width="50" height="50" relative="1" as="geometry">
            <mxPoint x="390" y="370" as="sourcePoint" />
            <mxPoint x="440" y="320" as="targetPoint" />
          </mxGeometry>
        </mxCell>
        <mxCell id="f7CumuYnIq6oZYcWAUSP-106" value="" style="endArrow=none;html=1;rounded=0;entryX=0.5;entryY=0;entryDx=0;entryDy=0;exitX=0.5;exitY=1;exitDx=0;exitDy=0;" edge="1" parent="1" source="f7CumuYnIq6oZYcWAUSP-104" target="f7CumuYnIq6oZYcWAUSP-3">
          <mxGeometry width="50" height="50" relative="1" as="geometry">
            <mxPoint x="390" y="370" as="sourcePoint" />
            <mxPoint x="440" y="320" as="targetPoint" />
          </mxGeometry>
        </mxCell>
        <mxCell id="f7CumuYnIq6oZYcWAUSP-107" value="N" style="text;html=1;align=center;verticalAlign=middle;whiteSpace=wrap;rounded=0;" vertex="1" parent="1">
          <mxGeometry x="640" y="190" width="40" height="20" as="geometry" />
        </mxCell>
        <mxCell id="f7CumuYnIq6oZYcWAUSP-108" value="N" style="text;html=1;align=center;verticalAlign=middle;whiteSpace=wrap;rounded=0;" vertex="1" parent="1">
          <mxGeometry x="640" y="450" width="40" height="20" as="geometry" />
        </mxCell>
      </root>
    </mxGraphModel>
  </diagram>
</mxfile>
